<svg width="800" height="400" viewBox="0 0 800 400" xmlns="http://www.w3.org/2000/svg"><mask id="satori_om-id"><rect x="0" y="0" width="800" height="400" fill="#fff"/></mask><rect x="0" y="0" width="800" height="400" fill="#fff"/><clipPath id="satori_cp-id-0"><rect x="48" y="48" width="96" height="96"/></clipPath><mask id="satori_om-id-0"><rect x="48" y="48" width="96" height="96" fill="#fff"/></mask><image x="48" y="48" width="96" height="96" href="data:image/svg+xml;utf8,%3Csvg  fill=%22none%22 xmlns=%22http://www.w3.org/2000/svg%22 width=%2296%22 height=%2296%22 viewBox=%220 0 96 96%22%3E%3Crect width=%2296%22 height=%2296%22 rx=%2216%22 fill=%22black%22%3E%3C/rect%3E%3Cpath d=%22M40.584 30.496L35.688 54.976C35.08 57.952 33.864 60.304 32.04 62.032C30.216 63.728 27.768 64.576 24.696 64.576C23.192 64.576 21.864 64.352 20.712 63.904C19.592 63.456 18.632 62.848 17.832 62.08C17.064 61.28 16.456 60.352 16.008 59.296C15.56 58.208 15.288 57.024 15.192 55.744L20.952 54.592C21.048 55.968 21.368 57.088 21.912 57.952C22.488 58.784 23.432 59.2 24.744 59.2C26.056 59.2 27.128 58.8 27.96 58C28.824 57.168 29.432 55.904 29.784 54.208L33.528 35.536H23.304L24.312 30.496H40.584ZM49.9639 35.296C48.9079 35.296 48.1399 35.088 47.6599 34.672C47.1799 34.256 46.9399 33.712 46.9399 33.04C46.9399 32.56 47.0199 31.952 47.1799 31.216C47.3719 30.416 47.7399 29.728 48.2839 29.152C48.8599 28.544 49.8359 28.24 51.2119 28.24C52.2679 28.24 53.0359 28.448 53.5159 28.864C53.9959 29.28 54.2359 29.824 54.2359 30.496C54.2359 30.976 54.1559 31.584 53.9959 32.32C53.8039 33.12 53.4199 33.824 52.8439 34.432C52.2999 35.008 51.3399 35.296 49.9639 35.296ZM46.0279 64C44.8119 64 43.8359 63.68 43.0999 63.04C42.3959 62.368 42.0439 61.488 42.0439 60.4C42.0439 60.08 42.0919 59.68 42.1879 59.2L46.2199 38.944H52.0279L47.9959 59.248H51.0199L50.0599 64H46.0279ZM54.4924 64L59.5324 38.944H65.3404L64.2364 44.512H64.4764C65.4044 42.528 66.5084 41.008 67.7884 39.952C69.1004 38.896 70.7164 38.368 72.6364 38.368C74.6524 38.368 76.1724 38.944 77.1964 40.096C78.2524 41.248 78.7804 42.88 78.7804 44.992C78.7804 45.536 78.7324 46.096 78.6364 46.672C78.5724 47.216 78.4764 47.808 78.3484 48.448L76.1884 59.248H78.9724L78.0124 64H73.9804C72.8284 64 71.9164 63.712 71.2444 63.136C70.5724 62.528 70.2364 61.68 70.2364 60.592C70.2364 60.144 70.2844 59.696 70.3804 59.248L72.4444 48.928C72.6364 48.032 72.7324 47.152 72.7324 46.288C72.7324 45.36 72.5084 44.64 72.0604 44.128C71.6124 43.584 70.8604 43.312 69.8044 43.312C68.9724 43.312 68.2044 43.52 67.5004 43.936C66.7964 44.32 66.1564 44.848 65.5804 45.52C64.9404 46.256 64.3804 47.072 63.9004 47.968C63.4524 48.864 63.1324 49.808 62.9404 50.8L60.3004 64H54.4924Z%22 fill=%22white%22%3E%3C/path%3E%3C/svg%3E" preserveAspectRatio="none" clip-path="url(#satori_cp-id-0)" mask="url(#satori_om-id-0)"/><mask id="satori_om-id-0-0"><rect x="48" y="48" width="0" height="96" fill="#fff"/></mask><mask id="satori_om-id-0-1"><rect x="48" y="48" width="0" height="96" fill="#fff"/></mask><mask id="satori_om-id-1"><rect x="48" y="313" width="704" height="39" fill="#fff"/></mask><path fill="black" d="M60.1 343.0L55.3 343.0L48.6 319.7L54.0 319.7L57.8 335.8L58.0 335.8L62.3 319.7L66.9 319.7L71.1 335.9L71.3 335.9L75.2 319.7L80.5 319.7L73.9 343.0L69.1 343.0L64.7 327.7L64.5 327.7L60.1 343.0ZM98.9 343.0L83.2 343.0L83.2 319.7L98.9 319.7L98.9 323.7L88.1 323.7L88.1 329.3L98.0 329.3L98.0 333.3L88.1 333.3L88.1 338.9L98.9 338.9L98.9 343.0ZM117.7 343.0L102.8 343.0L102.8 319.7L107.7 319.7L107.7 338.9L117.7 338.9L117.7 343.0ZM140.6 327.8L140.6 327.8L135.6 327.8Q135.4 326.9 135.0 326.1Q134.6 325.3 133.9 324.8Q133.3 324.3 132.4 324.0Q131.6 323.7 130.6 323.7L130.6 323.7Q128.8 323.7 127.4 324.6Q126.1 325.5 125.3 327.2Q124.6 328.9 124.6 331.3L124.6 331.3Q124.6 333.8 125.3 335.5Q126.1 337.2 127.4 338.1Q128.8 338.9 130.5 338.9L130.5 338.9Q131.5 338.9 132.4 338.7Q133.2 338.4 133.9 337.9Q134.5 337.4 135.0 336.7Q135.4 335.9 135.6 335.0L135.6 335.0L140.6 335.0Q140.4 336.6 139.6 338.1Q138.8 339.6 137.5 340.8Q136.3 341.9 134.5 342.6Q132.7 343.3 130.5 343.3L130.5 343.3Q127.3 343.3 124.9 341.9Q122.4 340.5 121.0 337.8Q119.6 335.1 119.6 331.3L119.6 331.3Q119.6 327.5 121.0 324.8Q122.5 322.2 124.9 320.8Q127.4 319.4 130.5 319.4L130.5 319.4Q132.5 319.4 134.2 319.9Q135.9 320.5 137.3 321.6Q138.6 322.7 139.5 324.2Q140.3 325.8 140.6 327.8ZM165.5 331.3L165.5 331.3Q165.5 335.1 164.0 337.8Q162.6 340.5 160.1 341.9Q157.7 343.3 154.6 343.3L154.6 343.3Q151.5 343.3 149.0 341.9Q146.5 340.5 145.1 337.8Q143.7 335.1 143.7 331.3L143.7 331.3Q143.7 327.5 145.1 324.8Q146.5 322.2 149.0 320.8Q151.5 319.4 154.6 319.4L154.6 319.4Q157.7 319.4 160.1 320.8Q162.6 322.2 164.0 324.8Q165.5 327.5 165.5 331.3ZM160.5 331.3L160.5 331.3Q160.5 328.8 159.8 327.2Q159.0 325.5 157.7 324.6Q156.4 323.7 154.6 323.7L154.6 323.7Q152.8 323.7 151.5 324.6Q150.1 325.5 149.4 327.2Q148.7 328.8 148.7 331.3L148.7 331.3Q148.7 333.8 149.4 335.5Q150.1 337.2 151.5 338.0Q152.8 338.9 154.6 338.9L154.6 338.9Q156.4 338.9 157.7 338.0Q159.0 337.2 159.8 335.5Q160.5 333.8 160.5 331.3ZM169.1 343.0L169.1 319.7L175.2 319.7L181.6 335.3L181.9 335.3L188.3 319.7L194.3 319.7L194.3 343.0L189.6 343.0L189.6 327.8L189.4 327.8L183.4 342.8L180.1 342.8L174.1 327.7L173.9 327.7L173.9 343.0L169.1 343.0ZM214.1 343.0L198.4 343.0L198.4 319.7L214.1 319.7L214.1 323.7L203.3 323.7L203.3 329.3L213.3 329.3L213.3 333.3L203.3 333.3L203.3 338.9L214.1 338.9L214.1 343.0Z M232.6 323.7L225.4 323.7L225.4 319.7L244.5 319.7L244.5 323.7L237.4 323.7L237.4 343.0L232.6 343.0L232.6 323.7ZM268.1 331.3L268.1 331.3Q268.1 335.1 266.6 337.8Q265.2 340.5 262.7 341.9Q260.2 343.3 257.2 343.3L257.2 343.3Q254.1 343.3 251.6 341.9Q249.1 340.5 247.7 337.8Q246.3 335.1 246.3 331.3L246.3 331.3Q246.3 327.5 247.7 324.8Q249.1 322.2 251.6 320.8Q254.1 319.4 257.2 319.4L257.2 319.4Q260.2 319.4 262.7 320.8Q265.2 322.2 266.6 324.8Q268.1 327.5 268.1 331.3ZM263.1 331.3L263.1 331.3Q263.1 328.8 262.3 327.2Q261.6 325.5 260.3 324.6Q258.9 323.7 257.2 323.7L257.2 323.7Q255.4 323.7 254.0 324.6Q252.7 325.5 252.0 327.2Q251.3 328.8 251.3 331.3L251.3 331.3Q251.3 333.8 252.0 335.5Q252.7 337.2 254.0 338.0Q255.4 338.9 257.2 338.9L257.2 338.9Q258.9 338.9 260.3 338.0Q261.6 337.2 262.3 335.5Q263.1 333.8 263.1 331.3Z M280.1 343.0L280.1 319.7L286.2 319.7L292.6 335.3L292.9 335.3L299.3 319.7L305.4 319.7L305.4 343.0L300.6 343.0L300.6 327.8L300.4 327.8L294.4 342.8L291.1 342.8L285.1 327.7L284.9 327.7L284.9 343.0L280.1 343.0ZM316.5 334.7L308.1 319.7L313.6 319.7L318.9 329.7L319.1 329.7L324.4 319.7L329.9 319.7L321.4 334.7L321.4 343.0L316.5 343.0L316.5 334.7Z M350.0 343.0L340.0 343.0L340.0 319.7L349.3 319.7Q351.9 319.7 353.6 320.4Q355.3 321.2 356.2 322.5Q357.1 323.9 357.1 325.6L357.1 325.6Q357.1 327.0 356.5 328.0Q356.0 329.1 355.0 329.7Q354.1 330.4 352.9 330.6L352.9 330.6L352.9 330.9Q354.2 330.9 355.4 331.6Q356.5 332.3 357.3 333.6Q358.0 334.8 358.0 336.5L358.0 336.5Q358.0 338.4 357.1 339.8Q356.1 341.3 354.4 342.1Q352.6 343.0 350.0 343.0L350.0 343.0ZM344.9 332.7L344.9 338.9L349.0 338.9Q351.0 338.9 352.0 338.1Q352.9 337.3 352.9 336.0L352.9 336.0Q352.9 335.1 352.4 334.3Q352.0 333.6 351.1 333.2Q350.3 332.7 349.1 332.7L349.1 332.7L344.9 332.7ZM344.9 323.7L344.9 329.4L348.6 329.4Q349.6 329.4 350.4 329.1Q351.2 328.7 351.6 328.0Q352.1 327.4 352.1 326.5L352.1 326.5Q352.1 325.2 351.2 324.4Q350.3 323.7 348.7 323.7L348.7 323.7L344.9 323.7ZM382.6 331.3L382.6 331.3Q382.6 335.1 381.1 337.8Q379.7 340.5 377.2 341.9Q374.7 343.3 371.7 343.3L371.7 343.3Q368.6 343.3 366.1 341.9Q363.6 340.5 362.2 337.8Q360.8 335.1 360.8 331.3L360.8 331.3Q360.8 327.5 362.2 324.8Q363.6 322.2 366.1 320.8Q368.6 319.4 371.7 319.4L371.7 319.4Q374.7 319.4 377.2 320.8Q379.7 322.2 381.1 324.8Q382.6 327.5 382.6 331.3ZM377.6 331.3L377.6 331.3Q377.6 328.8 376.8 327.2Q376.1 325.5 374.8 324.6Q373.4 323.7 371.7 323.7L371.7 323.7Q369.9 323.7 368.5 324.6Q367.2 325.5 366.5 327.2Q365.8 328.8 365.8 331.3L365.8 331.3Q365.8 333.8 366.5 335.5Q367.2 337.2 368.5 338.0Q369.9 338.9 371.7 338.9L371.7 338.9Q373.4 338.9 374.8 338.0Q376.1 337.2 376.8 335.5Q377.6 333.8 377.6 331.3ZM391.1 343.0L386.2 343.0L386.2 319.7L395.4 319.7Q398.0 319.7 399.9 320.6Q401.7 321.6 402.7 323.3Q403.7 325.0 403.7 327.3L403.7 327.3Q403.7 329.6 402.7 331.3Q401.7 332.9 399.8 333.8Q397.9 334.7 395.2 334.7L395.2 334.7L389.1 334.7L389.1 330.7L394.5 330.7Q395.9 330.7 396.8 330.4Q397.7 330.0 398.2 329.2Q398.6 328.4 398.6 327.3L398.6 327.3Q398.6 326.1 398.2 325.3Q397.7 324.5 396.8 324.1Q395.9 323.7 394.4 323.7L394.4 323.7L391.1 323.7L391.1 343.0ZM393.5 332.4L398.8 332.4L404.5 343.0L399.1 343.0L393.5 332.4ZM407.2 319.7L412.1 319.7L412.1 343.0L407.2 343.0L407.2 319.7ZM430.7 319.7L435.6 319.7L435.6 343.0L431.4 343.0L421.3 328.3L421.1 328.3L421.1 343.0L416.2 343.0L416.2 319.7L420.5 319.7L430.5 334.3L430.7 334.3L430.7 319.7ZM460.1 327.2L455.1 327.2Q454.9 326.4 454.5 325.7Q454.0 325.1 453.4 324.6Q452.8 324.2 452.0 324.0Q451.2 323.7 450.2 323.7L450.2 323.7Q448.5 323.7 447.1 324.6Q445.8 325.5 445.0 327.2Q444.3 328.9 444.3 331.3L444.3 331.3Q444.3 333.7 445.0 335.4Q445.7 337.1 447.1 338.0Q448.5 338.9 450.3 338.9L450.3 338.9Q452.0 338.9 453.2 338.3Q454.3 337.7 455.0 336.6Q455.6 335.5 455.6 334.1L455.6 334.1L456.6 334.2L450.6 334.2L450.6 330.5L460.3 330.5L460.3 333.4Q460.3 336.5 459.0 338.7Q457.7 340.9 455.5 342.1Q453.2 343.3 450.3 343.3L450.3 343.3Q447.0 343.3 444.5 341.8Q442.0 340.4 440.7 337.7Q439.3 335.0 439.3 331.3L439.3 331.3Q439.3 328.5 440.1 326.3Q440.9 324.1 442.4 322.5Q443.9 321.0 445.9 320.2Q447.9 319.4 450.2 319.4L450.2 319.4Q452.1 319.4 453.9 319.9Q455.6 320.5 456.9 321.6Q458.2 322.6 459.0 324.0Q459.9 325.5 460.1 327.2L460.1 327.2Z M481.4 343.0L471.5 343.0L471.5 319.7L480.8 319.7Q483.3 319.7 485.1 320.4Q486.8 321.2 487.6 322.5Q488.5 323.9 488.5 325.6L488.5 325.6Q488.5 327.0 488.0 328.0Q487.4 329.1 486.5 329.7Q485.5 330.4 484.3 330.6L484.3 330.6L484.3 330.9Q485.6 330.9 486.8 331.6Q488.0 332.3 488.7 333.6Q489.4 334.8 489.4 336.5L489.4 336.5Q489.4 338.4 488.5 339.8Q487.6 341.3 485.8 342.1Q484.0 343.0 481.4 343.0L481.4 343.0ZM476.4 332.7L476.4 338.9L480.4 338.9Q482.4 338.9 483.4 338.1Q484.3 337.3 484.3 336.0L484.3 336.0Q484.3 335.1 483.9 334.3Q483.4 333.6 482.5 333.2Q481.7 332.7 480.5 332.7L480.5 332.7L476.4 332.7ZM476.4 323.7L476.4 329.4L480.0 329.4Q481.0 329.4 481.8 329.1Q482.6 328.7 483.1 328.0Q483.5 327.4 483.5 326.5L483.5 326.5Q483.5 325.2 482.6 324.4Q481.7 323.7 480.1 323.7L480.1 323.7L476.4 323.7ZM507.5 343.0L492.6 343.0L492.6 319.7L497.5 319.7L497.5 338.9L507.5 338.9L507.5 343.0ZM531.2 331.3L531.2 331.3Q531.2 335.1 529.8 337.8Q528.4 340.5 525.9 341.9Q523.4 343.3 520.3 343.3L520.3 343.3Q517.2 343.3 514.8 341.9Q512.3 340.5 510.9 337.8Q509.4 335.1 509.4 331.3L509.4 331.3Q509.4 327.5 510.9 324.8Q512.3 322.2 514.8 320.8Q517.2 319.4 520.3 319.4L520.3 319.4Q523.4 319.4 525.9 320.8Q528.4 322.2 529.8 324.8Q531.2 327.5 531.2 331.3ZM526.2 331.3L526.2 331.3Q526.2 328.8 525.5 327.2Q524.8 325.5 523.5 324.6Q522.1 323.7 520.3 323.7L520.3 323.7Q518.6 323.7 517.2 324.6Q515.9 325.5 515.2 327.2Q514.4 328.8 514.4 331.3L514.4 331.3Q514.4 333.8 515.2 335.5Q515.9 337.2 517.2 338.0Q518.6 338.9 520.3 338.9L520.3 338.9Q522.1 338.9 523.5 338.0Q524.8 337.2 525.5 335.5Q526.2 333.8 526.2 331.3ZM555.3 327.2L550.3 327.2Q550.1 326.4 549.6 325.7Q549.2 325.1 548.6 324.6Q548.0 324.2 547.2 324.0Q546.4 323.7 545.4 323.7L545.4 323.7Q543.6 323.7 542.3 324.6Q541.0 325.5 540.2 327.2Q539.5 328.9 539.5 331.3L539.5 331.3Q539.5 333.7 540.2 335.4Q540.9 337.1 542.3 338.0Q543.6 338.9 545.5 338.9L545.5 338.9Q547.1 338.9 548.3 338.3Q549.5 337.7 550.2 336.6Q550.8 335.5 550.8 334.1L550.8 334.1L551.8 334.2L545.8 334.2L545.8 330.5L555.5 330.5L555.5 333.4Q555.5 336.5 554.2 338.7Q552.9 340.9 550.7 342.1Q548.4 343.3 545.5 343.3L545.5 343.3Q542.2 343.3 539.7 341.8Q537.2 340.4 535.8 337.7Q534.5 335.0 534.5 331.3L534.5 331.3Q534.5 328.5 535.3 326.3Q536.1 324.1 537.6 322.5Q539.1 321.0 541.1 320.2Q543.0 319.4 545.4 319.4L545.4 319.4Q547.3 319.4 549.0 319.9Q550.7 320.5 552.1 321.6Q553.4 322.6 554.2 324.0Q555.1 325.5 555.3 327.2L555.3 327.2ZM562.0 343.2L562.0 343.2Q560.8 343.2 560.0 342.4Q559.2 341.6 559.2 340.5L559.2 340.5Q559.2 339.4 560.0 338.6Q560.8 337.8 562.0 337.8L562.0 337.8Q563.0 337.8 563.9 338.6Q564.7 339.4 564.7 340.5L564.7 340.5Q564.7 341.3 564.3 341.9Q563.9 342.5 563.3 342.9Q562.7 343.2 562.0 343.2Z "/></svg>